<svg xmlns="http://www.w3.org/2000/svg" width="43.716" height="44.933" viewBox="0 0 43.716 44.933"><defs><style>.a{fill:#fff;}</style></defs><path class="a" d="M38.86,16c-5.936,0-6.681,1.243-9.013,1.349a16.041,16.041,0,0,0-5.305,1.016,11.181,11.181,0,0,0-6.395,6.392,15.967,15.967,0,0,0-1.016,5.305c-.1,2.332-.131,3.077-.131,9.013s.026,6.679.132,9.011a16.064,16.064,0,0,0,1.016,5.305,11.186,11.186,0,0,0,6.392,6.395A16.054,16.054,0,0,0,29.845,60.8c2.332.106,3.076.132,9.012.132s6.68-.026,9.011-.132a16.063,16.063,0,0,0,5.308-1.015,11.2,11.2,0,0,0,6.392-6.394,16.2,16.2,0,0,0,1.015-5.305c.1-2.332.132-3.075.132-9.011s-.027-6.681-.132-9.013a16.194,16.194,0,0,0-1.015-5.305,11.183,11.183,0,0,0-6.394-6.393,16.091,16.091,0,0,0-5.31-1.015C45.534,17.243,44.792,16,38.853,16ZM36.9,21.156H38.86c5.836,0,6.528.021,8.833.126a12.1,12.1,0,0,1,4.058.753A7.243,7.243,0,0,1,55.9,26.183a12.077,12.077,0,0,1,.753,4.057c.1,2.3.128,3,.128,8.83s-.023,6.526-.128,8.83a12.089,12.089,0,0,1-.753,4.057A7.249,7.249,0,0,1,51.751,56.1a12.058,12.058,0,0,1-4.058.753c-2.3.1-3,.128-8.833.128s-6.528-.023-8.833-.128a12.125,12.125,0,0,1-4.059-.754,7.242,7.242,0,0,1-4.149-4.147,12.077,12.077,0,0,1-.753-4.057c-.1-2.3-.126-3-.126-8.834s.021-6.526.126-8.83a12.1,12.1,0,0,1,.753-4.058,7.244,7.244,0,0,1,4.149-4.149,12.075,12.075,0,0,1,4.059-.754c2.016-.091,2.8-.118,6.872-.123Zm13.629,3.629a2.623,2.623,0,1,0,2.623,2.623,2.623,2.623,0,0,0-2.623-2.623ZM38.86,27.85A11.224,11.224,0,1,0,50.084,39.075,11.226,11.226,0,0,0,38.86,27.85Zm0,3.939a7.286,7.286,0,1,1-7.286,7.286A7.286,7.286,0,0,1,38.86,31.789Z" transform="translate(-17 -16)"/></svg>