<svg xmlns="http://www.w3.org/2000/svg" width="51" height="38.357" viewBox="0 0 51 38.357"><defs><style>.a{fill:#fff;}</style></defs><path class="a" d="M120.6,148.43l-17-16.908a4.1,4.1,0,0,1,2.025-.522H148.34a4.1,4.1,0,0,1,2.025.522l-17,16.908-2.025,2.01-3.437,3.421a1.333,1.333,0,0,1-.921.384,1.287,1.287,0,0,1-.921-.384Z" transform="translate(-101.483 -131)"/><path class="a" d="M106.907,165.339,90.214,181.925a4.116,4.116,0,0,1-.414-1.8v-30.1a3.993,3.993,0,0,1,.261-1.427Z" transform="translate(-89.8 -145.9)"/><path class="a" d="M135.312,270.8l16.647,16.555a4.032,4.032,0,0,1-1.672.353H107.572a4.032,4.032,0,0,1-1.672-.353L122.547,270.8,126,274.221a4.188,4.188,0,0,0,2.931,1.212,4.123,4.123,0,0,0,2.931-1.212Z" transform="translate(-103.43 -249.351)"/><path class="a" d="M327.892,149.942v30.1a4.116,4.116,0,0,1-.414,1.8L310.8,165.255,327.647,148.5A4.517,4.517,0,0,1,327.892,149.942Z" transform="translate(-276.892 -145.815)"/></svg>