<svg xmlns="http://www.w3.org/2000/svg" width="46.171" height="37.523" viewBox="0 0 46.171 37.523"><defs><style>.a{fill:#fff;}</style></defs><path class="a" d="M14.52,37.523c17.424,0,26.952-14.435,26.952-26.952q0-.615-.027-1.224a19.264,19.264,0,0,0,4.725-4.905,18.886,18.886,0,0,1-5.44,1.491A9.507,9.507,0,0,0,44.9.693a19,19,0,0,1-6.015,2.3,9.481,9.481,0,0,0-16.142,8.638,26.9,26.9,0,0,1-19.526-9.9A9.481,9.481,0,0,0,6.146,14.38,9.4,9.4,0,0,1,1.856,13.2c0,.04,0,.079,0,.121a9.475,9.475,0,0,0,7.6,9.286,9.455,9.455,0,0,1-4.278.163,9.482,9.482,0,0,0,8.849,6.579A19,19,0,0,1,2.26,33.4,19.24,19.24,0,0,1,0,33.268a26.814,26.814,0,0,0,14.521,4.255"/></svg>